<svg width="126" height="26" viewBox="0 0 126 26" fill="none" xmlns="http://www.w3.org/2000/svg">
<path d="M10.2889 11.3051H6.75974C5.40237 17.8241 4.69381 21.2031 4.69381 21.4693C4.69381 22.6997 6.18693 22.6128 7.59589 21.7762L8.51891 24.8999C7.63933 25.6469 6.49641 25.9864 5.13361 25.9864C2.36184 25.9864 0.955594 24.4898 0.955594 21.8061C0.966453 21.1596 1.62885 17.6855 2.98623 11.3051H0L0.746558 7.69787H3.78166L4.52821 4.00376L5.4078 0H9.18945C9.05552 0.747876 8.79129 2.02361 8.39674 3.8272L7.5606 7.69787H11.0355L10.2889 11.3051Z" fill="#115D8C"/>
<path d="M25.7201 7.60554L24.0912 10.9058C23.5617 10.7575 23.0113 10.6978 22.4624 10.7292C20.8531 10.7219 19.2672 11.1149 17.8473 11.8728L15.0375 25.2965H11.2559L14.9914 7.69789H18.1133L18.0699 8.31448C19.2284 7.67791 20.5053 7.28648 21.8214 7.16452C23.1374 7.04256 24.4645 7.19268 25.7201 7.60554Z" fill="#115D8C"/>
<path d="M67.7438 17.289C67.6567 17.8415 67.6122 18.4 67.6108 18.9595C67.6108 21.2502 68.6659 22.3946 70.7762 22.3928C73.3715 22.3928 75.041 21.0727 75.4374 19.1795L79.1295 19.5326C78.2064 23.8433 75.3505 26 70.6459 26C66.248 26 63.8291 23.1832 63.8291 18.916C63.8291 15.6565 64.7965 12.885 66.7312 10.6015C68.6668 8.27098 71.1725 7.12744 74.2049 7.12744C78.3829 7.12744 80.3565 9.77851 80.3565 13.5052C80.3352 14.7779 80.1879 16.0453 79.9167 17.289H67.7438ZM68.7537 14.1245H76.6265C76.7127 13.7191 76.7573 13.3059 76.7595 12.8913C76.7595 11.4409 75.8365 10.7373 73.9443 10.7373C71.6123 10.7346 69.8966 11.8782 68.7537 14.1245Z" fill="#115D8C"/>
<path d="M86.7795 21.4584C86.7795 21.2601 88.2834 14.0811 91.286 0H87.5124C86.8084 3.30659 86.0365 6.8848 85.1967 10.7346C83.7471 17.4655 83.0439 21.1596 83.0439 21.8197C83.0439 24.5033 84.4502 26 87.222 26C88.5793 26 89.725 25.6469 90.6046 24.9135L89.6815 21.7898C88.2753 22.6101 86.7795 22.6997 86.7795 21.4584Z" fill="#115D8C"/>
<path d="M97.1588 17.289C97.0717 17.8415 97.0273 18.4 97.0258 18.9595C97.0258 21.2502 98.0809 22.3946 100.191 22.3928C102.787 22.3928 104.456 21.0727 104.852 19.1795L108.544 19.5326C107.621 23.8433 104.766 26 100.061 26C95.663 26 93.2441 23.1832 93.2441 18.916C93.2441 15.6565 94.2115 12.885 96.1462 10.6015C98.0818 8.27098 100.588 7.12744 103.623 7.12744C107.798 7.12744 109.777 9.76493 109.777 13.5052C109.756 14.7779 109.608 16.0453 109.337 17.289H97.1588ZM98.1687 14.1245H106.041C106.128 13.7191 106.172 13.3059 106.175 12.8913C106.175 11.4409 105.252 10.7373 103.359 10.7373C101.027 10.7346 99.3116 11.8782 98.1687 14.1245Z" fill="#115D8C"/>
<path d="M126 7.60556L124.372 10.9058C123.842 10.7575 123.292 10.6979 122.743 10.7293C121.133 10.7219 119.547 11.1149 118.128 11.8728L115.315 25.2911H111.536L115.272 7.69248H118.394L118.364 8.3145C119.52 7.67981 120.795 7.28942 122.109 7.16747C123.422 7.04553 124.747 7.19463 126 7.60556Z" fill="#115D8C"/>
<path d="M22.9886 25.9619L21.1914 23.3082L34.0322 5.19073C34.5694 4.43142 35.3141 3.84329 36.177 3.49688C37.0399 3.15048 37.9843 3.0605 38.8971 3.23774L43.8325 23.8405L41.8317 25.9185L31.6351 23.8786L22.9886 25.9619ZM31.9473 20.4452L39.8879 22.0342L36.4456 7.70598L26.6264 21.5589L31.1899 20.4724L31.9473 20.4452Z" fill="#F25D27"/>
<path d="M47.8612 25.8751L42.9258 5.27227L44.9266 3.19434L55.1232 5.23425L63.767 3.15088L65.5642 5.80466L52.7261 23.9221C52.1882 24.6806 51.4434 25.2682 50.5807 25.6145C49.718 25.9608 48.7739 26.0513 47.8612 25.8751ZM46.8785 7.07858L50.3099 21.4068L60.1319 7.55393L55.5576 8.65673L54.8191 8.67303L46.8785 7.07858Z" fill="#F25D27"/>
</svg>
